<svg width="209.85506591796874px" height="378.0799926757812px" xmlns="http://www.w3.org/2000/svg" viewBox="145.0724670410156 -114.03999633789061 209.85506591796874 378.0799926757812" style="background: rgba(255, 255, 255, 0);" preserveAspectRatio="xMidYMid"><defs><filter id="editing-hole" x="-100%" y="-100%" width="300%" height="300%"><feFlood flood-color="#e9b6ae" result="black"></feFlood><feMorphology operator="dilate" radius="2" in="SourceGraphic" result="erode"></feMorphology><feGaussianBlur in="erode" stdDeviation="4" result="blur"></feGaussianBlur><feOffset in="blur" dx="2" dy="2" result="offset"></feOffset><feComposite operator="atop" in="offset" in2="black" result="merge"></feComposite><feComposite operator="in" in="merge" in2="SourceGraphic" result="inner-shadow"></feComposite></filter></defs><g filter="url(#editing-hole)"><g transform="translate(177.00002479553223, 146.50000381469727)"><path d="M123.60-12.20L137.60-10.80L136.20 1L136.20 1Q124 0 108 0L108 0L82.40 1L81.40-9L93.20-11.80L93.20-11.80Q84.40-26 79.20-32.80L79.20-32.80L46.20-70.60L82.60-115.40L90.40-129L79.60-131.20L80.60-142L80.60-142Q97.80-141 101.80-141L101.80-141L127.20-142L128-130.20L112.80-128.80L112.80-128.80Q102.40-119.20 92.40-109.20L92.40-109.20L66-74L66-74Q70.80-68.40 79.30-58.80L79.30-58.80L79.30-58.80Q87.80-49.20 94.90-41L94.90-41L94.90-41Q102-32.80 106.70-27.50L106.70-27.50L106.70-27.50Q111.40-22.20 123.60-12.20L123.60-12.20ZM44.20-107.60L44.20-107.60L44.20-33.40L44.20-33.40Q44.20-22 45.60-12.20L45.60-12.20L63.60-10.80L62.20 1L62.20 1Q49 0 33 0L33 0L9.40 1L8.40-9L24.20-12.20L24.20-12.20Q26-24 26-27.40L26-27.40L26-113.60L26-113.60Q26-117.20 24.20-128.80L24.20-128.80L8.80-131.20L9.80-142L9.80-142Q29-141 33-141L33-141L60.40-142L61.20-130.20L45.60-128.80L45.60-128.80Q44.20-119 44.20-107.60Z" fill="#ce6260"></path></g></g><style>text {
  font-size: 64px;
  font-family: Arial Black;
  dominant-baseline: central;
  text-anchor: middle;
}</style></svg>